<!DOCTYPE svg PUBLIC "-//W3C//DTD SVG 1.1//EN" "http://www.w3.org/Graphics/SVG/1.1/DTD/svg11.dtd">
<!-- Uploaded to: SVG Repo, www.svgrepo.com, Transformed by: SVG Repo Mixer Tools -->
<svg fill="#ffffff" width="800px" height="800px" viewBox="0 0 96 96" xmlns="http://www.w3.org/2000/svg" stroke="#ffffff">
<g id="SVGRepo_bgCarrier" stroke-width="0"/>
<g id="SVGRepo_tracerCarrier" stroke-linecap="round" stroke-linejoin="round"/>
<g id="SVGRepo_iconCarrier">
<title/>
<path d="M90,24H72V18A18.02,18.02,0,0,0,54,0H42A18.02,18.02,0,0,0,24,18v6H6A6,6,0,0,0,6,36h6V90a5.9966,5.9966,0,0,0,6,6H78a5.9966,5.9966,0,0,0,6-6V36h6a6,6,0,0,0,0-12ZM36,18a6.0078,6.0078,0,0,1,6-6H54a6.0078,6.0078,0,0,1,6,6v6H36ZM72,84H24V36H72Z"/>
</g>
</svg>