<!DOCTYPE svg PUBLIC "-//W3C//DTD SVG 1.1//EN" "http://www.w3.org/Graphics/SVG/1.1/DTD/svg11.dtd">
<!-- Uploaded to: SVG Repo, www.svgrepo.com, Transformed by: SVG Repo Mixer Tools -->
<svg fill="#ffffff" height="800px" width="800px" version="1.1" xmlns="http://www.w3.org/2000/svg" viewBox="0 0 468.5 468.5" xmlns:xlink="http://www.w3.org/1999/xlink" enable-background="new 0 0 468.5 468.5" stroke="#ffffff">
<g id="SVGRepo_bgCarrier" stroke-width="0"/>
<g id="SVGRepo_tracerCarrier" stroke-linecap="round" stroke-linejoin="round"/>
<g id="SVGRepo_iconCarrier"> <g> <path d="m423.914,307.765l-12.216-64.781c-0.277-15.663-8.524-29.408-20.855-37.352l-.854-8.821c-0.519-5.369-4.979-9.418-10.373-9.418h-26.537c-5.393,0-9.853,4.048-10.373,9.417l-.712,7.355h-101.166l-.712-7.356c-0.521-5.368-4.98-9.416-10.374-9.416h-26.536c-0.895,0-1.76,0.121-2.589,0.331v-180.224c0-4.142-3.357-7.5-7.5-7.5h-48.89c-4.143,0-7.5,3.358-7.5,7.5v11h-13.224v-11c0-4.142-3.357-7.5-7.5-7.5h-48.887c-4.143,0-7.5,3.358-7.5,7.5v415.45l-15.136,35.078c-1,2.318-0.767,4.983 0.62,7.093 1.388,2.109 3.742,3.379 6.267,3.379h157.5c2.524,0 4.879-1.27 6.267-3.379 1.387-2.109 1.62-4.775 0.62-7.093l-15.137-35.079v-72.646c10.616-1.618 21.03-7.938 26.896-20.916l11.036-24.427c4.608,2.811 10.018,4.432 15.799,4.432 14.192,0 26.143-9.766 29.492-22.93h15.141c3.349,13.164 15.3,22.93 29.492,22.93 5.782,0 11.193-1.622 15.802-4.434l11.036,24.429c6.906,15.285 20.122,21.36 32.549,21.36 3.937,0 7.794-0.61 11.346-1.729 14.767-4.652 28.798-19.547 24.708-41.253zm-65.587-34.682c-2.229-11.333-10.767-20.425-21.794-23.458-0.372-1.91-0.562-3.863-0.562-5.831 0-16.749 13.626-30.374 30.374-30.374s30.374,13.625 30.374,30.374-13.626,30.375-30.374,30.375c-2.739-5.68434e-14-5.425-0.375-8.018-1.086zm-5.249-75.689h26.537c0.219,0 0.398,0.163 0.42,0.381l.277,2.854c-4.403-1.428-9.094-2.209-13.967-2.209-4.871,0-9.561,0.78-13.963,2.208l.276-2.852c0.022-0.218 0.203-0.382 0.42-0.382zm-128.584,75.689c-2.595,0.711-5.281,1.086-8.02,1.086-16.749,0-30.375-13.626-30.375-30.375s13.626-30.374 30.375-30.374c16.748,0 30.374,13.625 30.374,30.374 0,1.969-0.19,3.922-0.563,5.832-11.025,3.034-19.563,12.124-21.791,23.457zm-38.878,143.917h-33.89v-246h33.89v39.569c-8.737,8.12-14.271,19.63-14.497,32.416l-12.21,64.78c-4.092,21.703 9.935,36.598 24.699,41.253 0.658,0.208 1.33,0.391 2.008,0.563v67.419zm-62.113,0v-246h13.224v246h-13.224zm-48.887-246h33.887v246h-33.887v-246zm128.589,26.394h26.536c0.219,0 0.399,0.164 0.421,0.381l.276,2.854c-4.402-1.428-9.093-2.208-13.965-2.208s-9.563,0.781-13.965,2.208l.277-2.855c0.022-0.217 0.202-0.38 0.42-0.38zm-17.589-182.394v146h-33.89v-146h33.89zm-48.889,18.5v127.5h-13.224v-127.5h13.224zm-28.224-18.5v146h-33.887v-146h33.887zm-45.732,438.5l9.278-21.5h116.135l9.278,21.5h-134.691zm151.073-130.288c-5.728,12.67-17.436,14.114-25.725,11.5-8.284-2.612-17.045-10.509-14.47-24.168l7.276-38.601c8.319,10.483 21.157,17.226 35.549,17.226 3.015,0 5.994-0.302 8.911-0.884 0.544,1.686 1.231,3.306 2.047,4.85l-13.588,30.077zm40.504-23.818c-11.265,0-20.43-9.165-20.43-20.43s9.165-20.43 20.43-20.43c11.265,0 20.43,9.165 20.43,20.43s-9.165,20.43-20.43,20.43zm44.633-27.931h-15.141c-2.768-10.88-11.416-19.432-22.345-22.074 0.229-1.851 0.353-3.719 0.353-5.595 0-9.075-2.688-17.529-7.295-24.628h73.714c-4.607,7.099-7.295,15.553-7.295,24.628 0,1.876 0.124,3.744 0.353,5.595-10.93,2.643-19.576,11.195-22.344,22.074zm9.062,7.5c0-11.265 9.165-20.43 20.43-20.43s20.43,9.165 20.43,20.43-9.165,20.43-20.43,20.43-20.43-9.164-20.43-20.43zm86.654,55.75c-8.287,2.612-19.994,1.166-25.716-11.5l-13.59-30.081c0.815-1.542 1.502-3.162 2.045-4.846 2.916,0.582 5.894,0.883 8.909,0.883 14.392,0 27.231-6.744 35.55-17.228l7.28,38.603c2.573,13.661-6.191,21.558-14.478,24.169z"/> <path d="m254.348,263.678c-8.429,0-15.285,6.857-15.285,15.285s6.856,15.285 15.285,15.285c8.429,0 15.285-6.857 15.285-15.285s-6.856-15.285-15.285-15.285zm0,20.571c-2.914,0-5.285-2.371-5.285-5.285s2.371-5.285 5.285-5.285c2.914,0 5.285,2.371 5.285,5.285s-2.371,5.285-5.285,5.285z"/> <path d="m328.473,263.678c-8.429,0-15.285,6.857-15.285,15.285s6.856,15.285 15.285,15.285 15.285-6.857 15.285-15.285-6.856-15.285-15.285-15.285zm0,20.571c-2.914,0-5.285-2.371-5.285-5.285s2.371-5.285 5.285-5.285 5.285,2.371 5.285,5.285-2.371,5.285-5.285,5.285z"/> <path d="m278.816,239.335h-5.951c-2.762,0-5,2.239-5,5s2.238,5 5,5h5.951c2.762,0 5-2.239 5-5s-2.239-5-5-5z"/> <path d="m309.956,239.335h-5.951c-2.762,0-5,2.239-5,5s2.238,5 5,5h5.951c2.762,0 5-2.239 5-5s-2.238-5-5-5z"/> <path d="m366.348,238.289c1.97,0 3.9-0.8 5.3-2.19 1.4-1.4 2.2-3.33 2.2-5.3 0-1.98-0.8-3.91-2.2-5.31-1.399-1.39-3.33-2.19-5.3-2.19-1.979,0-3.91,0.8-5.31,2.19-1.391,1.4-2.19,3.33-2.19,5.31 0,1.97 0.8,3.9 2.19,5.3 1.4,1.39 3.33,2.19 5.31,2.19z"/> <path d="m371.648,262.099c1.4-1.4 2.2-3.33 2.2-5.3 0-1.98-0.8-3.91-2.2-5.31-1.399-1.39-3.33-2.2-5.3-2.2-1.979,0-3.91,0.81-5.31,2.2-1.391,1.4-2.19,3.33-2.19,5.31 0,1.97 0.8,3.9 2.19,5.3 1.399,1.39 3.33,2.2 5.31,2.2 1.97,0 3.9-0.81 5.3-2.2z"/> <path d="m358.648,238.489c-1.399-1.39-3.33-2.19-5.3-2.19-1.979,0-3.91,0.8-5.31,2.19-1.391,1.4-2.19,3.33-2.19,5.31 0,1.97 0.8,3.9 2.19,5.3 1.399,1.4 3.33,2.2 5.31,2.2 1.97,0 3.9-0.8 5.3-2.2 1.4-1.4 2.2-3.33 2.2-5.3 0-1.98-0.8-3.91-2.2-5.31z"/> <path d="m374.038,249.099c1.399,1.39 3.33,2.19 5.31,2.19 1.97,0 3.9-0.8 5.3-2.19 1.4-1.4 2.2-3.33 2.2-5.3 0-1.98-0.8-3.91-2.2-5.31-1.399-1.39-3.33-2.2-5.3-2.2-1.979,0-3.91,0.81-5.31,2.2-1.391,1.4-2.19,3.33-2.19,5.31 0,1.97 0.8,3.9 2.19,5.3z"/> <path d="m216.478,238.289c1.971,0 3.9-0.8 5.301-2.19 1.399-1.4 2.199-3.33 2.199-5.3 0-1.98-0.8-3.91-2.199-5.31-1.4-1.39-3.33-2.2-5.301-2.2-1.979,0-3.91,0.81-5.31,2.2-1.39,1.4-2.19,3.33-2.19,5.31 0,1.97 0.801,3.9 2.19,5.3 1.4,1.39 3.33,2.19 5.31,2.19z"/> <path d="m216.478,249.299c-1.979,0-3.91,0.8-5.31,2.19-1.39,1.4-2.19,3.33-2.19,5.3 0,1.98 0.801,3.91 2.19,5.31 1.399,1.4 3.33,2.2 5.31,2.2 1.971,0 3.9-0.8 5.301-2.2 1.399-1.4 2.199-3.33 2.199-5.31 0-1.97-0.8-3.9-2.199-5.3-1.401-1.39-3.331-2.19-5.301-2.19z"/> <path d="m208.779,238.489c-1.4-1.39-3.33-2.19-5.311-2.19-1.97,0-3.91,0.8-5.3,2.19-1.39,1.4-2.19,3.33-2.19,5.31 0,1.97 0.801,3.9 2.19,5.3 1.399,1.4 3.33,2.2 5.3,2.2 1.98,0 3.91-0.8 5.311-2.2 1.39-1.4 2.189-3.33 2.189-5.3 0-1.98-0.8-3.91-2.189-5.31z"/> <path d="m229.478,236.289c-1.979,0-3.91,0.81-5.31,2.2-1.39,1.4-2.19,3.33-2.19,5.3 0,1.98 0.801,3.91 2.19,5.31 1.399,1.4 3.33,2.2 5.31,2.2 1.971,0 3.9-0.8 5.301-2.2 1.39-1.4 2.199-3.33 2.199-5.31 0-1.97-0.81-3.9-2.199-5.3-1.401-1.39-3.331-2.2-5.301-2.2z"/> </g> </g>
</svg>